<?xml version="1.0" encoding="utf-8"?>
<!-- Generator: Adobe Illustrator 24.1.2, SVG Export Plug-In . SVG Version: 6.00 Build 0)  -->
<svg version="1.1" id="Calque_1" xmlns="http://www.w3.org/2000/svg" xmlns:xlink="http://www.w3.org/1999/xlink" x="0px" y="0px"
	 viewBox="0 0 132.2 87" style="enable-background:new 0 0 132.2 87;" xml:space="preserve">
<style type="text/css">
	.st0{fill:#191A1C;}
</style>
<path class="st0" d="M22.5,87h-21C0.7,87,0,86.4,0,85.6V65.9c0-0.8,0.7-1.5,1.5-1.5h21c0.8,0,1.5,0.7,1.5,1.5v19.7
	C23.9,86.4,23.3,87,22.5,87z"/>
<path class="st0" d="M104.3,87H26.7c-0.8,0-1.5-0.7-1.5-1.5V65.9c0-0.8,0.7-1.5,1.5-1.5h77.6c0.8,0,1.5,0.7,1.5,1.5v19.7
	C105.8,86.4,105.1,87,104.3,87z"/>
<path class="st0" d="M110.1,87h-0.3c-0.8,0-1.5-0.7-1.5-1.5V65.9c0-0.8,0.7-1.5,1.5-1.5h0.3c0.8,0,1.5,0.7,1.5,1.5v19.7
	C111.6,86.4,111,87,110.1,87z"/>
<path class="st0" d="M114.9,87h-0.3c-0.8,0-1.5-0.7-1.5-1.5V65.9c0-0.8,0.7-1.5,1.5-1.5h0.3c0.8,0,1.5,0.7,1.5,1.5v19.7
	C116.4,86.4,115.7,87,114.9,87z"/>
<path class="st0" d="M119.6,87h-0.3c-0.8,0-1.5-0.7-1.5-1.5V65.9c0-0.8,0.7-1.5,1.5-1.5h0.3c0.8,0,1.5,0.7,1.5,1.5v19.7
	C121.1,86.4,120.4,87,119.6,87z"/>
<path class="st0" d="M111.2,60c0,0-4.8-12.8-1-18.1s15.3-10.7,17.5-15.5c5.2-11.3-14.6-10.4-14.6-10.4c1.2-0.2,15.1-2.2,18.4-11.8
	c0.4-1.2,0.7-2.6,0.7-4.3c-15.7,0-31.4,0-47.1,0c0,0-2.3,6.1,2.4,13.6c7.4,10.1,22.7,6.8,22.7,15.9c0,8.5-16.2,5.3-11.3,15.3
	S111.2,60,111.2,60z"/>
<g>
</g>
<g>
</g>
<g>
</g>
<g>
</g>
<g>
</g>
<g>
</g>
</svg>
