<?xml version="1.0" encoding="utf-8"?>
<!-- Generator: Adobe Illustrator 24.1.2, SVG Export Plug-In . SVG Version: 6.00 Build 0)  -->
<svg version="1.1" id="Calque_1" xmlns="http://www.w3.org/2000/svg" xmlns:xlink="http://www.w3.org/1999/xlink" x="0px" y="0px"
	 viewBox="0 0 121.8 142.8" style="enable-background:new 0 0 121.8 142.8;" xml:space="preserve">
<style type="text/css">
	.st0{fill:none;stroke:#191A1C;stroke-width:18;stroke-miterlimit:10;}
	.st1{fill:#191A1C;}
</style>
<path class="st0" d="M37.3,98.2V43.3c0-12.6,10.2-22.9,22.9-22.9h0c12.6,0,22.9,10.2,22.9,22.9v54.9"/>
<path class="st1" d="M90.7,47.4h-59c-9.7,0-17.6,6.9-17.6,15.3v51.4c0,8.5,7.9,15.3,17.6,15.3h59c9.7,0,17.6-6.9,17.6-15.3V62.8
	C108.3,54.3,100.4,47.4,90.7,47.4z M67.4,90.5c0,0.2,0,0.5,0,0.7v14.3c0,4-3.2,7.2-7.2,7.2s-7.2-3.2-7.2-7.2V91.2c0-0.2,0-0.5,0-0.7
	c-4-2.4-6.6-6.8-6.6-11.8c0-7.6,6.2-13.8,13.8-13.8S74,71.1,74,78.7C74,83.7,71.3,88.1,67.4,90.5z"/>
<g>
</g>
<g>
</g>
<g>
</g>
<g>
</g>
<g>
</g>
<g>
</g>
</svg>
