<?xml version="1.0" encoding="utf-8"?>
<!-- Generator: Adobe Illustrator 24.1.2, SVG Export Plug-In . SVG Version: 6.00 Build 0)  -->
<svg version="1.1" id="Calque_1" xmlns="http://www.w3.org/2000/svg" xmlns:xlink="http://www.w3.org/1999/xlink" x="0px" y="0px"
	 viewBox="0 0 131.7 161.5" style="enable-background:new 0 0 131.7 161.5;" xml:space="preserve">
<style type="text/css">
	.st0{fill:#FFFFFF;stroke:#000000;stroke-width:9;stroke-miterlimit:10;}
	.st1{fill:none;stroke:#000000;stroke-width:9;stroke-linecap:round;stroke-miterlimit:10;}
</style>
<path class="st0" d="M113.5,137.7l-72.3,13.8c-5.1,1-10.1-2.4-11.1-7.5L10.4,41c-1-5.1,2.4-10.1,7.5-11.1l72.3-13.8
	c5.1-1,10.1,2.4,11.1,7.5l19.7,103C122,131.8,118.6,136.7,113.5,137.7z"/>
<path class="st0" d="M111.7,136.7H38.1c-5.2,0-9.4-4.2-9.4-9.4V22.4c0-5.2,4.2-9.4,9.4-9.4h73.6c5.2,0,9.4,4.2,9.4,9.4v104.9
	C121.1,132.5,116.9,136.7,111.7,136.7z"/>
<line class="st1" x1="46.2" y1="34.4" x2="104.2" y2="34.4"/>
<line class="st1" x1="46.2" y1="55.4" x2="104.2" y2="55.4"/>
<line class="st1" x1="46.2" y1="75.4" x2="104.2" y2="75.4"/>
<line class="st1" x1="46.2" y1="95.4" x2="104.2" y2="95.4"/>
<line class="st1" x1="46.2" y1="115.2" x2="81.8" y2="115.2"/>
<g>
</g>
<g>
</g>
<g>
</g>
<g>
</g>
<g>
</g>
<g>
</g>
</svg>
