<?xml version="1.0" encoding="utf-8"?>
<!-- Generator: Adobe Illustrator 24.1.2, SVG Export Plug-In . SVG Version: 6.00 Build 0)  -->
<svg version="1.1" id="Calque_1" xmlns="http://www.w3.org/2000/svg" xmlns:xlink="http://www.w3.org/1999/xlink" x="0px" y="0px"
	 viewBox="0 0 176.8 178.7" style="enable-background:new 0 0 176.8 178.7;" xml:space="preserve">
<style type="text/css">
	.st0{fill:#BF2D2B;}
</style>
<path class="st0" d="M85.6,84.6c-19.9,0-18.8,27.3-31.7,42.5s-29.5,11.3-24,33.1s28.1,0.5,51.3,3.4c23.1,3,42.3,16.2,52-0.3
	s-12.1-21.6-19.2-38C106.8,109,105.5,84.6,85.6,84.6z"/>
<path class="st0" d="M40.5,79.6c-4-6.1-24.3-30.4-31.6-10.1s10,64,31.3,56.5C61.4,118.6,44.4,85.7,40.5,79.6z"/>
<path class="st0" d="M78,32.7c-2-7-14.1-36.3-27.2-19s-9.5,64.1,13,63.3S80,39.7,78,32.7z"/>
<path class="st0" d="M132.5,79.6c4-6.1,24.3-30.4,31.6-10.1c7.3,20.4-10,64-31.3,56.5C111.6,118.6,128.6,85.7,132.5,79.6z"/>
<path class="st0" d="M95,32.7c2-7,14.1-36.3,27.2-19s9.5,64.1-13,63.3S93.1,39.7,95,32.7z"/>
</svg>
