<?xml version="1.0" encoding="utf-8"?>
<!-- Generator: Adobe Illustrator 24.1.2, SVG Export Plug-In . SVG Version: 6.00 Build 0)  -->
<svg version="1.1" id="Calque_1" xmlns="http://www.w3.org/2000/svg" xmlns:xlink="http://www.w3.org/1999/xlink" x="0px" y="0px"
	 viewBox="0 0 111.1 101" style="enable-background:new 0 0 111.1 101;" xml:space="preserve">
<style type="text/css">
	.st0{fill:#0B0C0D;}
	.st1{fill:none;stroke:#10100F;stroke-width:9;stroke-miterlimit:10;}
	.st2{fill:none;stroke:#0D0D0D;stroke-width:16;stroke-linecap:round;stroke-linejoin:round;stroke-miterlimit:10;}
</style>
<path class="st0" d="M96.7,34.3H15.2c-5.8,0-10.4,5-10.4,11.2v19.3C4.8,71,9.4,76,15.2,76h81.5c5.8,0,10.4-5,10.4-11.2V45.5
	C107.2,39.3,102.5,34.3,96.7,34.3z M26.6,60.5c-5.5,1-10.1-3.7-9.1-9.1c0.6-3,3-5.5,6.1-6.1c5.5-1,10.1,3.7,9.1,9.1
	C32.1,57.5,29.6,59.9,26.6,60.5z M87.4,60.5c-5.5,1-10.1-3.7-9.1-9.1c0.6-3,3-5.5,6.1-6.1c5.5-1,10.1,3.7,9.1,9.1
	C93,57.5,90.5,59.9,87.4,60.5z"/>
<path class="st1" d="M19.7,37.7l7.7-22.9c1-3.1,3.9-5.1,7.1-5.1h43.3c3.1,0,5.9,2,7,4.9l8.4,22.9"/>
<line class="st2" x1="23.9" y1="72.9" x2="23.9" y2="87.3"/>
<line class="st2" x1="89.2" y1="72.9" x2="89.2" y2="87.3"/>
</svg>
