<?xml version="1.0" encoding="utf-8"?>
<!-- Generator: Adobe Illustrator 24.1.2, SVG Export Plug-In . SVG Version: 6.00 Build 0)  -->
<svg version="1.1" id="Calque_1" xmlns="http://www.w3.org/2000/svg" xmlns:xlink="http://www.w3.org/1999/xlink" x="0px" y="0px"
	 viewBox="0 0 105.1 113.5" style="enable-background:new 0 0 105.1 113.5;" xml:space="preserve">
<style type="text/css">
	.st0{fill:none;stroke:#000000;stroke-width:9;stroke-linecap:round;stroke-miterlimit:10;}
</style>
<line class="st0" x1="13" y1="8.6" x2="93.9" y2="8.6"/>
<line class="st0" x1="13" y1="106" x2="93.9" y2="106"/>
<path class="st0" d="M24.7,104.3c0-48.6,18-30.7,18-48.6c0-16.6-18.1,0-18.1-44.9"/>
<path class="st0" d="M82.7,105.7c0-48.6-18-30.7-18-48.6c0-16.6,18.1,0,18.1-44.9"/>
<path d="M54.1,76.9c-8,0-28.1,16.8-17.9,20s25.6,2.6,35.6,0.2C81.9,94.7,62.1,76.9,54.1,76.9z"/>
<circle cx="54" cy="61.4" r="4.4"/>
<circle cx="54" cy="48.7" r="4.4"/>
<g>
</g>
<g>
</g>
<g>
</g>
<g>
</g>
<g>
</g>
<g>
</g>
</svg>
