<?xml version="1.0" encoding="utf-8"?>
<!-- Generator: Adobe Illustrator 24.1.2, SVG Export Plug-In . SVG Version: 6.00 Build 0)  -->
<svg version="1.1" id="Calque_1" xmlns="http://www.w3.org/2000/svg" xmlns:xlink="http://www.w3.org/1999/xlink" x="0px" y="0px"
	 viewBox="0 0 68.5 12.3" style="enable-background:new 0 0 68.5 12.3;" xml:space="preserve">
<style type="text/css">
	.st0{enable-background:new    ;}
	.st1{fill:#1B191E;}
	.st2{fill:#E4AA4E;}
</style>
<g class="st0">
	<path class="st1" d="M1.4,7.3v-6h2.5v6c0,0.8,0.7,1.3,1.4,1.3c0.7,0,1.4-0.5,1.4-1.3v-6h2.5v6c0,2.2-1.8,3.7-3.9,3.7
		S1.4,9.5,1.4,7.3z"/>
	<path class="st1" d="M10.8,1.3h3.6c1.9,0,3.6,1.5,3.6,3.3c0,1.8-1.6,3.4-3.6,3.4h-1.1v2.8h-2.5V1.3z M15.5,4.6c0-0.6-0.5-1-1.1-1
		h-1.1v2l1.1,0C15,5.6,15.5,5.2,15.5,4.6z"/>
	<path class="st1" d="M18.5,9.1L20,7.6c0.4,0.6,1.1,0.9,1.9,0.9C22.5,8.6,23,8.4,23,8c0-0.5-1-0.9-1.9-1.3c-1.2-0.5-2.2-1.3-2.2-2.7
		c0-1.6,1.6-2.8,3.3-2.8c1.4,0,2.6,0.7,2.9,1.6l-1.4,1.4c-0.3-0.5-1-0.7-1.5-0.7c-0.5,0-0.9,0.3-0.9,0.6c0,0.4,0.7,0.6,1.7,1
		c1.5,0.6,2.5,1.5,2.5,2.9c0,1.8-1.7,2.9-3.6,2.9C20.4,10.8,19,10.2,18.5,9.1z"/>
	<path class="st1" d="M26.1,9.1l1.5-1.5c0.4,0.6,1.1,0.9,1.9,0.9c0.5,0,1.1-0.2,1.1-0.6c0-0.5-1-0.9-1.9-1.3
		c-1.2-0.5-2.2-1.3-2.2-2.7c0-1.6,1.6-2.8,3.3-2.8c1.4,0,2.6,0.7,2.9,1.6l-1.4,1.4c-0.3-0.5-1-0.7-1.5-0.7C29.4,3.4,29,3.7,29,4
		c0,0.4,0.7,0.6,1.7,1c1.5,0.6,2.5,1.5,2.5,2.9c0,1.8-1.7,2.9-3.6,2.9C28,10.8,26.6,10.2,26.1,9.1z"/>
	<path class="st1" d="M34.3,1.3h2.5v9.4h-2.5V1.3z"/>
</g>
<g class="st0">
	<path class="st2" d="M43.5,10.7L41,6.6v4.1h-2.5l0-9.4H42c2,0,3.5,1.4,3.5,3.1c0,1.2-0.7,2.2-1.6,2.6l2.5,3.8H43.5z M41,5.4l1,0
		c0.5,0,1-0.4,1-0.9c0-0.6-0.5-0.9-1-0.9h-1V5.4z"/>
	<path class="st2" d="M47.3,1.3h2.5v9.4h-2.5V1.3z"/>
	<path class="st2" d="M59.7,6c0,2.9-2,4.7-5.2,4.7h-3.1V1.3l3.1,0C57.8,1.3,59.7,3.1,59.7,6z M57.2,6c0-1.5-1-2.4-2.7-2.4h-0.6v4.7
		h0.6C56.2,8.4,57.2,7.5,57.2,6z"/>
	<path class="st2" d="M63.5,3.6v1.3h3V7h-3v1.4h3.6v2.3H61V1.3h6.1v2.3H63.5z"/>
</g>
<rect x="50.5" y="4.9" class="st2" width="9.9" height="2"/>
</svg>
