<?xml version="1.0" encoding="utf-8"?>
<!-- Generator: Adobe Illustrator 24.1.2, SVG Export Plug-In . SVG Version: 6.00 Build 0)  -->
<svg version="1.1" id="Calque_1" xmlns="http://www.w3.org/2000/svg" xmlns:xlink="http://www.w3.org/1999/xlink" x="0px" y="0px"
	 viewBox="0 0 126.3 117.2" style="enable-background:new 0 0 126.3 117.2;" xml:space="preserve">
<style type="text/css">
	.st0{fill:#191A1C;}
</style>
<path class="st0" d="M63.2,84.9c1.3,15.4-11.2,27.9-11.1,28c1,1.7,33.3-14.7,34.7-26.4c0.1-0.4,0-0.9-0.2-1.4
	C84.7,80.8,69.8,83.5,63.2,84.9z"/>
<path class="st0" d="M62.9,6.9c-31.5,0-57,18.9-57,42.2s25.5,42.2,57,42.2c31.5,0,57-18.9,57-42.2S94.3,6.9,62.9,6.9z M84.3,79.9
	C85.5,79.1,97.6,68,96.9,49c-0.5-13-5.4-24.8-17.1-30.9c17.7-0.2,32,13.9,32.2,30.6C112.2,64,100.4,77.8,84.3,79.9z"/>
<g>
</g>
<g>
</g>
<g>
</g>
<g>
</g>
<g>
</g>
<g>
</g>
</svg>
